{"title":"Rise Of The Legend 2014 1080p BluRay x264","uid":11707697,"size":12794691617,"categoryP":"video","categoryS":"movies","magnet":"?xt=urn:btih:90144dc55b596421d4a9c5061935a5e2d91c90e1&amp;dn=+Rise+Of+The+Legend+2014+1080p+BluRay+x264+&amp;tr=udp%3A%2F%2Ftracker.openbittorrent.com%3A80&amp;tr=udp%3A%2F%2Fopen.demonii.com%3A1337&amp;tr=udp%3A%2F%2Ftracker.coppersurfer.tk%3A6969&amp;tr=udp%3A%2F%2Fexodus.desync.com%3A6969","seeders":61,"leechers":10,"uploader":"makintos13","files":5,"time":1424194126,"description":"Rise Of The Legend 2014 1080p BluRay x264 \n\n &lt;a href=&quot;\nhttp://imgsleek.com/img-54e36be656780.html&quot; rel=&quot;nofollow&quot; target=&quot;_NEW&quot;&gt;\nhttp://imgsleek.com/img-54e36be656780.html&lt;/a&gt;\n &lt;a href=&quot;\nhttp://imgsleek.com/img-54e36be66c65f.html&quot; rel=&quot;nofollow&quot; target=&quot;_NEW&quot;&gt;\nhttp://imgsleek.com/img-54e36be66c65f.html&lt;/a&gt;\n &lt;a href=&quot;\nhttp://imgsleek.com/img-54e36be672781.html&quot; rel=&quot;nofollow&quot; target=&quot;_NEW&quot;&gt;\nhttp://imgsleek.com/img-54e36be672781.html&lt;/a&gt;\n &lt;a href=&quot;\nhttp://imgsleek.com/img-54e36be678eb0.html&quot; rel=&quot;nofollow&quot; target=&quot;_NEW&quot;&gt;\nhttp://imgsleek.com/img-54e36be678eb0.html&lt;/a&gt;\n &lt;a href=&quot;\nhttp://imgsleek.com/img-54e36be67f688.html&quot; rel=&quot;nofollow&quot; target=&quot;_NEW&quot;&gt;\nhttp://imgsleek.com/img-54e36be67f688.html&lt;/a&gt;\n\n\nVideo\nID : 1\nFormat : AVC\nFormat/Info : Advanced Video Codec\nFormat profile : &lt;a class=&quot;__cf_email__&quot; href=&quot;/cdn-cgi/l/email-protection&quot; data-cfemail=&quot;92dafbf5fad2dea6bca3&quot;&gt;[email&amp;#160;protected]&lt;/a&gt;&lt;script cf-hash='f9e31' type=&quot;text/javascript&quot;&gt;\n/* &lt;![CDATA[ */!function(){try{var t=&quot;currentScript&quot;in document?document.currentScript:function(){for(var t=document.getElementsByTagName(&quot;script&quot;),e=t.length;e--;)if(t[e].getAttribute(&quot;cf-hash&quot;))return t[e]}();if(t&amp;&amp;t.previousSibling){var e,r,n,i,c=t.previousSibling,a=c.getAttribute(&quot;data-cfemail&quot;);if(a){for(e=&quot;&quot;,r=parseInt(a.substr(0,2),16),n=2;a.length-n;n+=2)i=parseInt(a.substr(n,2),16)^r,e+=String.fromCharCode(i);e=document.createTextNode(e),c.parentNode.replaceChild(e,c)}}}catch(u){}}();/* ]]&gt; */&lt;/script&gt;\nFormat settings, CABAC : Yes\nFormat settings, ReFrames : 4 frames\nCodec ID : V_MPEG4/ISO/AVC\nDuration : 2h 11mn\nBit rate : 11.5 Mbps\nWidth : 1 920 pixels\nHeight : 808 pixels\nDisplay aspect ratio : 2.40:1\nFrame rate mode : Constant\nFrame rate : 24.000 fps\nColor space : YUV\nChroma subsampling : 4:2:0\nBit depth : 8 bits\nScan type : Progressive\nBits/(Pixel*Frame) : 0.309\nStream size : 10.3 GiB (86%)\nTitle : Rise.Of.The.Legend.2014.1080p.BluRay.x264.DTS-RARBG\nWriting library : x264 core 144 r2525M 40bb568\nEncoding settings : cabac=1 / ref=4 / deblock=1:-2:-2 / analyse=0x3:0x113 / me=umh / subme=7 / psy=1 / psy_rd=1.00:0.15 / mixed_ref=1 / me_range=16 / chroma_me=1 / trellis=1 / 8x8dct=1 / cqm=0 / deadzone=21,11 / fast_pskip=1 / chroma_qp_offset=-3 / threads=40 / lookahead_threads=8 / sliced_threads=0 / nr=0 / decimate=1 / interlaced=0 / bluray_compat=0 / constrained_intra=0 / bframes=3 / b_pyramid=2 / b_adapt=2 / b_bias=0 / direct=3 / weightb=1 / open_gop=0 / weightp=2 / keyint=250 / keyint_min=25 / scenecut=40 / intra_refresh=0 / rc_lookahead=50 / rc=abr / mbtree=1 / bitrate=11500 / ratetol=1.0 / qcomp=0.60 / qpmin=0 / qpmax=69 / qpstep=4 / vbv_maxrate=31250 / vbv_bufsize=31250 / nal_hrd=none / filler=0 / ip_ratio=1.40 / aq=1:1.00\nLanguage : Chinese\nDefault : Yes\nForced : No\n\nAudio\nID : 2\nFormat : DTS\nFormat/Info : Digital Theater Systems\nMode : 16\nFormat settings, Endianness : Big\nCodec ID : A_DTS\nDuration : 2h 11mn\nBit rate mode : Constant\nBit rate : 1 509 Kbps\nChannel(s) : 6 channels\nChannel positions : Front: L C R, Side: L R, LFE\nSampling rate : 48.0 KHz\nBit depth : 24 bits\nCompression mode : Lossy\nStream size : 1.39 GiB (12%)\nTitle : Rise.Of.The.Legend.2014.1080p.BluRay.x264.DTS-RARBG\nLanguage : Chinese\nDefault : Yes\nForced : No\n\nText\nID : 3\nFormat : UTF-8\nCodec ID : S_TEXT/UTF8\nCodec ID/Info : UTF-8 Plain Text\nTitle : English\nLanguage : English\nDefault : Yes\nForced : Yes\n\nMenu\n00:00:00.000 : en:Chapter 01\n00:10:11.666 : en:Chapter 02\n00:23:25.833 : en:Chapter 03\n00:38:03.375 : en:Chapter 04\n00:51:26.625 : en:Chapter 05\n01:01:07.666 : en:Chapter 06\n01:16:56.416 : en:Chapter 07\n01:32:26.375 : en:Chapter 08\n01:54:09.791 : en:Chapter 09\n02:06:16.666 : en:Chapter 10","torrent":{"xt":"urn:btih:90144dc55b596421d4a9c5061935a5e2d91c90e1","amp;dn":"+Rise+Of+The+Legend+2014+1080p+BluRay+x264+","amp;tr":["udp%3A%2F%2Ftracker.openbittorrent.com%3A80","udp%3A%2F%2Fopen.demonii.com%3A1337","udp%3A%2F%2Ftracker.coppersurfer.tk%3A6969","udp%3A%2F%2Fexodus.desync.com%3A6969"],"infoHash":"90144dc55b596421d4a9c5061935a5e2d91c90e1","infoHashBuffer":{"type":"Buffer","data":[144,20,77,197,91,89,100,33,212,169,197,6,25,53,165,226,217,28,144,225]},"announce":[],"urlList":[]}}